<?xml version="1.0" encoding="utf-8"?>
<!-- Generator: Adobe Illustrator 16.0.0, SVG Export Plug-In . SVG Version: 6.00 Build 0)  -->
<!DOCTYPE svg PUBLIC "-//W3C//DTD SVG 1.1//EN" "http://www.w3.org/Graphics/SVG/1.1/DTD/svg11.dtd">
<svg version="1.1" id="objects" xmlns="http://www.w3.org/2000/svg" xmlns:xlink="http://www.w3.org/1999/xlink" x="0px" y="0px"
	 width="250.717px" height="251px" viewBox="0 0 250.717 251" enable-background="new 0 0 250.717 251" xml:space="preserve">
<circle fill="#29AEB6" cx="125.216" cy="125.5" r="125.499"/>
<circle fill="#F8F4E9" cx="125.216" cy="125.5" r="106.737"/>
<g>
	<g>
		<g>
			<path fill="#CCCCCC" d="M145.005,177h-40.533c0,0,6.456-1.494,6.456-18.41c0-5.559,27.786-7.058,27.786-0.601
				C138.714,175.558,145.005,177,145.005,177z"/>
			<path fill="#E6E6E6" d="M146,180.346c0,0.361-0.293,0.654-0.653,0.654h-40.693c-0.36,0-0.653-0.293-0.653-0.654v-2.691
				c0-0.361,0.293-0.654,0.653-0.654h40.693c0.36,0,0.653,0.293,0.653,0.654V180.346z"/>
		</g>
		<path fill="#E6E6E6" d="M184,159.14c0,2.167-0.871,5.86-3.037,5.86H68.514c-2.168,0-2.514-3.693-2.514-5.86V149h118V159.14z"/>
		<path fill="#333333" d="M184,80.686c0-2.166-0.871-3.686-3.037-3.686H68.514C66.346,77,66,78.52,66,80.686V149h118V80.686z"/>
		<rect x="71" y="83" fill="#1FD3E3" width="108" height="61"/>
	</g>
</g>
<polygon fill-rule="evenodd" clip-rule="evenodd" fill="#DCDBD9" points="88.183,99.51 158.607,99.51 158.607,139.562 
	88.183,139.562 88.183,99.51 "/>
<polygon fill-rule="evenodd" clip-rule="evenodd" fill="#B1B1B1" points="88.183,87.421 158.607,87.421 158.607,99.51 88.183,99.51 
	88.183,87.421 "/>
<polygon fill-rule="evenodd" clip-rule="evenodd" fill="#99FFFF" points="138.508,91.646 142.33,91.646 142.33,95.288 
	138.508,95.288 138.508,91.646 "/>
<polygon fill-rule="evenodd" clip-rule="evenodd" fill="#FFFF66" points="144.805,91.646 148.625,91.646 148.625,95.288 
	144.805,95.288 144.805,91.646 "/>
<polygon fill-rule="evenodd" clip-rule="evenodd" fill="#CC6633" points="151.1,91.646 154.92,91.646 154.92,95.288 151.1,95.288 
	151.1,91.646 "/>
<polygon fill-rule="evenodd" clip-rule="evenodd" fill="#B1B1B1" points="92.781,133.424 154.682,133.424 154.682,135.683 
	92.781,135.683 92.781,133.424 "/>
<polygon fill-rule="evenodd" clip-rule="evenodd" fill="#B1B1B1" points="92.781,129.63 154.682,129.63 154.682,131.889 
	92.781,131.889 92.781,129.63 "/>
<polygon fill-rule="evenodd" clip-rule="evenodd" fill="#1B2A3D" points="92.781,111.834 154.682,111.834 154.682,127.816 
	92.781,127.816 92.781,111.834 "/>
<polygon fill-rule="evenodd" clip-rule="evenodd" fill="#FFFF66" points="97.036,102.176 97.897,104.837 100.692,104.83 
	98.428,106.47 99.297,109.129 97.036,107.482 94.776,109.129 95.648,106.47 93.38,104.83 96.179,104.837 97.036,102.176 "/>
<polygon fill-rule="evenodd" clip-rule="evenodd" fill="#FFFF66" points="110.241,102.176 111.099,104.837 113.896,104.83 
	111.631,106.47 112.5,109.129 110.241,107.482 107.98,109.129 108.85,106.47 106.584,104.83 109.38,104.837 110.241,102.176 "/>
<polygon fill-rule="evenodd" clip-rule="evenodd" fill="#FFFF66" points="123.442,102.176 124.302,104.837 127.101,104.83 
	124.833,106.47 125.701,109.129 123.442,107.482 121.182,109.129 122.053,106.47 119.785,104.83 122.583,104.837 123.442,102.176 
	"/>
<polygon fill-rule="evenodd" clip-rule="evenodd" fill="#FFFF66" points="136.645,102.176 137.507,104.837 140.302,104.83 
	138.037,106.47 138.905,109.129 136.645,107.482 134.385,109.129 135.254,106.47 132.988,104.83 135.786,104.837 136.645,102.176 
	"/>
<polygon fill-rule="evenodd" clip-rule="evenodd" fill="#B3B3B3" points="149.848,102.176 150.708,104.837 153.505,104.83 
	151.238,106.47 152.108,109.129 149.848,107.482 147.59,109.129 148.458,106.47 146.192,104.83 148.989,104.837 149.848,102.176 "/>
<g>
	<circle fill="#ED1C24" cx="177.988" cy="151.677" r="23.906"/>
	<g>
		<path fill="#FFFFFF" d="M190,161.995c0,2.234-2.266,4.005-4.496,4.005h-13.986c-2.23,0-3.518-1.771-3.518-4.005v-7.68
			c0-2.229,1.287-3.315,3.518-3.315h13.986c2.23,0,4.496,1.086,4.496,3.315V161.995z"/>
		<g>
			<path fill="#FFFFFF" d="M186,153h-3v-10.027c0-1.341-0.562-1.973-1.906-1.973h-4.865c-1.342,0-2.229,0.633-2.229,1.973V153h-3
				v-10.851c0-2.684,2.543-4.149,5.229-4.149h4.865c2.684,0,4.906,1.466,4.906,4.149V153z"/>
		</g>
	</g>
	<circle cx="178.474" cy="156.823" r="2.278"/>
	<polyline points="177.996,157.64 176.6,163.081 180.35,163.081 178.879,157.64 	"/>
</g>
</svg>
