<?xml version="1.0" encoding="iso-8859-1"?>
<!DOCTYPE svg PUBLIC "-//W3C//DTD SVG 1.1//EN" "http://www.w3.org/Graphics/SVG/1.1/DTD/svg11.dtd">
<svg version="1.1" id="Layer_1" xmlns="http://www.w3.org/2000/svg" xmlns:xlink="http://www.w3.org/1999/xlink" x="0px" y="0px" width="10px" height="10px" viewBox="0 0 10 10" style="enable-background:new 0 0 10 10;" xml:space="preserve">
<path d="M9.943,3.875c0-0.155-0.111-0.252-0.334-0.289L6.627,3.125L5.291,0.259C5.215,0.087,5.119,0,5,0 C4.881,0,4.784,0.087,4.708,0.259L3.372,3.125L0.389,3.586C0.167,3.623,0.057,3.72,0.057,3.875c0,0.089,0.049,0.189,0.148,0.303 l2.162,2.23l-0.511,3.15C1.849,9.618,1.845,9.66,1.845,9.686c0,0.088,0.021,0.162,0.062,0.224C1.949,9.97,2.011,10,2.094,10 c0.071,0,0.15-0.023,0.238-0.075L5,8.438l2.668,1.487C7.75,9.977,7.83,10,7.904,10c0.08,0,0.141-0.029,0.182-0.091 s0.062-0.136,0.062-0.224c0-0.055-0.002-0.098-0.006-0.127l-0.512-3.15l2.156-2.23C9.891,4.069,9.943,3.968,9.943,3.875z"/></svg>